# xmcd
#
# Track frame offsets:
#	150
#	17676
#	29767
#	59272
#	75144
#	94880
#	119706
#	137711
#	152666
#	187249
#	198524
#	209476
#	229966
#	255767
#	279351
#	296112
#	327119
#
# Disc length: 4597 seconds
#
# Revision: 1
# Processed by: cddbd v1.5.2PL0 Copyright (c) Steve Scherf et al.
# Submitted via: audiograbber 1.83.01
#
DISCID=f811f311
DTITLE=Savoy Brown - Getting to the Point
DYEAR=1968
DGENRE=Bluesrock
TTITLE0=Flood In Houston
TTITLE1=Stay With Me Baby
TTITLE2=Honey Bee
TTITLE3=The Incredible Gnome Meets Jaxman
TTITLE4=Give Me a Penny
TTITLE5=Mr. Downchild
TTITLE6=Getting to the Point
TTITLE7=Big City Lights
TTITLE8=You Need Love
TTITLE9=Walking By Myself
TTITLE10=Taste and Try, Before You Buy
TTITLE11=Taste and Try, Before You Buy
TTITLE12=Let it rock
TTITLE13=Shot in the Head
TTITLE14=Heartbreaks make you strong
TTITLE15=I can't get next to you
TTITLE16=15 Miles to go
EXTD=
EXTT0=
EXTT1=
EXTT2=
EXTT3=
EXTT4=
EXTT5=
EXTT6=
EXTT7=
EXTT8=
EXTT9=
EXTT10=
EXTT11=
EXTT12=
EXTT13=
EXTT14=
EXTT15=
EXTT16=
PLAYORDER=
